HIERARCHY
ROOT Hips
{
  OFFSET 66.8636 91.4232 30.2206
  CHANNELS 6 Xposition Yposition Zposition Zrotation Xrotation Yrotation
  JOINT spine
  {
    OFFSET 0 6.84637 0.3937
    CHANNELS 3 Zrotation Xrotation Yrotation
    JOINT spine1
    {
      OFFSET 0 9.49621 0
      CHANNELS 3 Zrotation Xrotation Yrotation
      JOINT spine2
      {
        OFFSET 0 9.09909 0
        CHANNELS 3 Zrotation Xrotation Yrotation
        JOINT Neck
        {
          OFFSET 0 23.3612 1.11378
          CHANNELS 3 Zrotation Xrotation Yrotation
          JOINT Head
          {
            OFFSET 0 7.05802 0
            CHANNELS 3 Zrotation Xrotation Yrotation
            End Site
            {
              OFFSET 0 17.0844 -5.63419
            }
          }
        }
        JOINT RightShoulder
        {
          OFFSET -3.83136 9.82631 -0.533491
          CHANNELS 3 Zrotation Xrotation Yrotation
          JOINT RightArm
          {
            OFFSET 0 12.8881 0
            CHANNELS 3 Zrotation Xrotation Yrotation
            JOINT RightArmRoll
            {
              OFFSET 0 6.50617 0
              CHANNELS 3 Zrotation Xrotation Yrotation
              JOINT RightForeArm
              {
                OFFSET 0 18.9501 0
                CHANNELS 3 Zrotation Xrotation Yrotation
                JOINT RightForeArmRoll
                {
                  OFFSET 0 7.30092 0
                  CHANNELS 3 Zrotation Xrotation Yrotation
                  JOINT RightHand
                  {
                    OFFSET 0 14.6514 0
                    CHANNELS 3 Zrotation Xrotation Yrotation
                    End Site
                    {
                      OFFSET 0 0 0
                    }
                  }
                }
              }
            }
          }
        }
        JOINT LeftShoulder
        {
          OFFSET 3.83136 9.82631 -0.533491
          CHANNELS 3 Zrotation Xrotation Yrotation
          JOINT LeftArm
          {
            OFFSET 0 12.8881 0
            CHANNELS 3 Zrotation Xrotation Yrotation
            JOINT LeftArmRoll
            {
              OFFSET 0 6.50617 0
              CHANNELS 3 Zrotation Xrotation Yrotation
              JOINT LeftForeArm
              {
                OFFSET 0 18.9501 0
                CHANNELS 3 Zrotation Xrotation Yrotation
                JOINT LeftForeArmRoll
                {
                  OFFSET 0 7.30092 0
                  CHANNELS 3 Zrotation Xrotation Yrotation
                  JOINT LeftHand
                  {
                    OFFSET 0 14.6514 0
                    CHANNELS 3 Zrotation Xrotation Yrotation
                    End Site
                    {
                      OFFSET 0 0 0
                    }
                  }
                }
              }
            }
          }
        }
      }
    }
  }
  JOINT RightUpLeg
  {
    OFFSET -6.06837 -1.11278 -0.933477
    CHANNELS 3 Zrotation Xrotation Yrotation
    JOINT RightUpLegRoll
    {
      OFFSET 0 17.1796 0
      CHANNELS 3 Zrotation Xrotation Yrotation
      JOINT RightLeg
      {
        OFFSET 0 -21.2743 0
        CHANNELS 3 Zrotation Xrotation Yrotation
        JOINT RightLegRoll
        {
          OFFSET 0 21.3439 0
          CHANNELS 3 Zrotation Xrotation Yrotation
          JOINT RightFoot
          {
            OFFSET 0 17.7652 0
            CHANNELS 3 Zrotation Xrotation Yrotation
            JOINT RightToeBase
            {
              OFFSET 0 14.8508 0
              CHANNELS 3 Zrotation Xrotation Yrotation
              End Site
              {
                OFFSET 0.0062947 7.19214 -0.829005
              }
            }
          }
        }
      }
    }
  }
  JOINT LeftUpLeg
  {
    OFFSET 6.06837 -1.11278 -0.933477
    CHANNELS 3 Zrotation Xrotation Yrotation
    JOINT LeftUpLegRoll
    {
      OFFSET 0 17.1797 0
      CHANNELS 3 Zrotation Xrotation Yrotation
      JOINT LeftLeg
      {
        OFFSET 0 21.2742 0
        CHANNELS 3 Zrotation Xrotation Yrotation
        JOINT LeftLegRoll
        {
          OFFSET 0 21.5412 0
          CHANNELS 3 Zrotation Xrotation Yrotation
          JOINT LeftFoot
          {
            OFFSET 0 17.5679 0
            CHANNELS 3 Zrotation Xrotation Yrotation
            JOINT LeftToeBase
            {
              OFFSET 0 14.8508 0
              CHANNELS 3 Zrotation Xrotation Yrotation
              End Site
              {
                OFFSET -0.0282102 7.19213 -0.829005
              }
            }
          }
        }
      }
    }
  }
}
MOTION
Frames: 5
Frame Time: 0.00208333
60.0153 123.847 11.7841 1.39827 4.23593 -3.74325 0.220731 -2.66033 0.0806173 0.443615 -1.31762 0.14286 0.441879 0.327431 0.135435 -12.5526 11.3819 3.68039 6.99881 7.29299 0.233895 53.7992 -5.31814 -2.95949 107.886 -2.22556 23.1742 -2.91161e-005 -1.53425e-006 -5.11207e-006 4.41111 15.3165 -1.96935 -5.36726e-006 3.86445e-006 -2.99999 8.029 -4.95146 0.697683 -51.0622 -6.2914 3.4843 -111.076 11.1391 -22.3029 2.05022e-005 -1.11409e-005 3.78478e-006 -8.02376 4.66699 0.622144 5.48594e-006 -1.30208e-006 3.00078 -8.02986 -4.9514 -0.697644 174.461 13.2907 -0.102336 180 7.01566e-015 179.008 -179.379 9.7615 179.585 -1.02913e-006 2.18841e-006 -0.0523515 -17.2449 65.8925 17.9445 8.13649 25.2326 -3.48773 -173.827 8.25991 -1.41354 4.54188e-006 -4.6773e-006 -1.08321 -1.68268 -16.7317 0.370742 1.01584e-006 -2.57673e-006 -0.191787 18.1247 67.4269 -19.0702 -8.13649 25.2327 3.48773 
60.0551 123.814 11.8359 1.40367 4.25442 -3.74156 0.221257 -2.66131 0.0776361 0.444557 -1.31958 0.136856 0.442892 0.325464 0.129415 -12.6062 11.3492 3.69322 7.04657 7.31987 0.234107 53.7807 -5.30774 -2.95107 107.95 -2.21825 23.1749 -2.91161e-005 -1.53425e-006 -5.11207e-006 4.39968 15.29 -1.96654 -5.36726e-006 3.86445e-006 -2.99999 8.029 -4.95146 0.697683 -51.0834 -6.27256 3.47175 -111.126 11.0927 -22.2723 2.05022e-005 -1.11409e-005 3.78478e-006 -8.05188 4.72192 0.629041 5.48594e-006 -1.30208e-006 3.00078 -8.02986 -4.9514 -0.697644 174.472 13.2803 -0.100093 180 7.01566e-015 179.01 -179.416 9.59423 179.596 -1.02913e-006 2.18841e-006 -0.0549843 -17.2335 65.8771 17.9326 8.13649 25.2326 -3.48773 -173.833 8.24758 -1.41029 4.54188e-006 -4.6773e-006 -1.08096 -1.70224 -16.6035 0.364142 1.01584e-006 -2.57673e-006 -0.190594 18.1321 67.4354 -19.0775 -8.13649 25.2327 3.48773 
60.0462 123.738 11.8806 1.40992 4.27238 -3.7384 0.2217 -2.66223 0.0746837 0.445333 -1.32144 0.130917 0.443739 0.323611 0.123463 -12.6608 11.3184 3.7057 7.0944 7.34498 0.233573 53.76 -5.29908 -2.94372 108.017 -2.21101 23.1733 -2.91161e-005 -1.53425e-006 -5.11207e-006 4.38942 15.2643 -1.96393 -5.36726e-006 3.86445e-006 -2.99999 8.029 -4.95146 0.697683 -51.1061 -6.25145 3.4577 -111.176 11.0479 -22.2441 2.05022e-005 -1.11409e-005 3.78478e-006 -8.07778 4.77488 0.635627 5.48594e-006 -1.30208e-006 3.00078 -8.02986 -4.9514 -0.697644 174.481 13.2702 -0.0964849 180 7.01567e-015 179.013 -179.451 9.4311 179.606 -1.02913e-006 2.18841e-006 -0.0574732 -17.223 65.8629 17.9215 8.13649 25.2326 -3.48773 -173.839 8.2341 -1.40656 4.54188e-006 -4.6773e-006 -1.0787 -1.72165 -16.4726 0.357535 1.01584e-006 -2.57673e-006 -0.189322 18.139 67.4432 -19.0843 -8.13649 25.2327 3.48773 
60.1073 123.698 11.9809 1.41728 4.28948 -3.73358 0.222034 -2.66305 0.0717935 0.445895 -1.32308 0.12511 0.444369 0.321967 0.117646 -12.7171 11.2903 3.71809 7.14253 7.36748 0.232346 53.7362 -5.2924 -2.93756 108.087 -2.20414 23.1693 -2.91161e-005 -1.53425e-006 -5.11207e-006 4.38054 15.2397 -1.96153 -5.36726e-006 3.86445e-006 -2.99999 8.029 -4.95146 0.697683 -51.1315 -6.22766 3.44192 -111.224 11.0052 -22.2188 2.05022e-005 -1.11409e-005 3.78478e-006 -8.10109 4.82514 0.641809 5.48594e-006 -1.30208e-006 3.00078 -8.02986 -4.9514 -0.697644 174.488 13.2605 -0.0914067 180 7.01567e-015 179.015 -179.487 9.27305 179.616 -1.02913e-006 2.18841e-006 -0.0597792 -17.2136 65.8501 17.9115 8.13649 25.2326 -3.48773 -173.845 8.21914 -1.40173 4.54188e-006 -4.6773e-006 -1.07645 -1.74046 -16.3384 0.350996 1.01584e-006 -2.57673e-006 -0.187945 18.1452 67.4502 -19.0903 -8.13649 25.2327 3.48773 
60.1072 123.62 12.017 1.42602 4.30542 -3.72691 0.222234 -2.66371 0.068999 0.44619 -1.32442 0.119506 0.444731 0.32063 0.112037 -12.7757 11.2658 3.73067 7.19121 7.38652 0.230483 53.7088 -5.28795 -2.93272 108.161 -2.19793 23.1623 -2.91161e-005 -1.53425e-006 -5.11207e-006 4.37324 15.216 -1.95937 -5.36726e-006 3.86445e-006 -2.99999 8.029 -4.95146 0.697683 -51.1607 -6.20079 3.42419 -111.268 10.9654 -22.1969 2.05022e-005 -1.11409e-005 3.78478e-006 -8.12142 4.87201 0.647499 5.48594e-006 -1.30208e-006 3.00077 -8.02986 -4.9514 -0.697644 174.492 13.2516 -0.0847544 180 7.01568e-015 179.017 -179.521 9.12092 179.626 -1.02913e-006 2.18841e-006 -0.0618634 -17.2055 65.8393 17.9031 8.13649 25.2326 -3.48773 -173.854 8.20233 -1.39517 4.54188e-006 -4.6773e-006 -1.0742 -1.75821 -16.2008 0.344599 1.01584e-006 -2.57673e-006 -0.186436 18.1504 67.4561 -19.0953 -8.13649 25.2327 3.48773 
